<svg width="73" height="126" viewBox="0 0 73 126" fill="none" xmlns="http://www.w3.org/2000/svg">
<path d="M45.5488 78.5195C45.4512 77.5104 45.207 76.0293 44.8164 74.0762C44.263 71.5046 43.9863 69.4375 43.9863 67.875C43.9863 66.8333 44.5234 65.8568 45.5977 64.9453C46.6719 64.0339 48.3646 62.862 50.6758 61.4297C52.987 59.9974 54.8913 58.7116 56.3887 57.5723C57.9186 56.4329 59.2207 55.0495 60.2949 53.4219C61.4017 51.7943 61.9551 49.9714 61.9551 47.9531C61.9551 45.9674 61.4017 44.0957 60.2949 42.3379C59.1882 40.5801 57.7233 39.1803 55.9004 38.1387C54.0775 37.0645 52.1732 36.5273 50.1875 36.5273C49.2109 36.5273 48.3646 36.7715 47.6484 37.2598C46.9323 37.748 46.0697 38.4967 45.0605 39.5059C44.1491 40.4824 43.319 41.2311 42.5703 41.752C41.8542 42.2402 41.0078 42.4844 40.0312 42.4844C38.9896 42.4844 38.1107 42.0775 37.3945 41.2637C36.6784 40.4173 36.3203 39.4733 36.3203 38.4316C36.3203 36.6738 36.9714 35.2578 38.2734 34.1836C39.5755 33.0768 41.1706 32.2956 43.0586 31.8398C44.9792 31.3516 46.8997 31.1074 48.8203 31.1074C51.9453 31.1074 55.0378 31.9375 58.0977 33.5977C61.1901 35.2253 63.7129 37.39 65.666 40.0918C67.6517 42.7936 68.6445 45.6419 68.6445 48.6367C68.6445 51.5664 68.14 54.0566 67.1309 56.1074C66.1217 58.1582 64.901 59.8346 63.4688 61.1367C62.0365 62.4062 60.1647 63.8223 57.8535 65.3848C55.9329 66.6868 54.4193 67.7936 53.3125 68.7051C52.2383 69.6165 51.3268 70.7233 50.5781 72.0254C49.862 73.3275 49.5039 74.8574 49.5039 76.6152V78.5195H45.5488ZM53.9961 90.5801C53.9961 91.6543 53.7031 92.6634 53.1172 93.6074C52.5638 94.5189 51.8151 95.2513 50.8711 95.8047C49.9271 96.3581 48.918 96.6348 47.8438 96.6348C46.7695 96.6348 45.7767 96.3581 44.8652 95.8047C43.9538 95.2513 43.2214 94.5189 42.668 93.6074C42.1146 92.6634 41.8379 91.6543 41.8379 90.5801C41.8379 89.5059 42.0983 88.4967 42.6191 87.5527C43.1725 86.6087 43.9049 85.86 44.8164 85.3066C45.7604 84.7533 46.7695 84.4766 47.8438 84.4766C48.918 84.4766 49.9271 84.7533 50.8711 85.3066C51.8151 85.86 52.5638 86.6087 53.1172 87.5527C53.7031 88.4967 53.9961 89.5059 53.9961 90.5801Z" fill="white"/>
<rect x="8.03735" y="34" width="42.7388" height="3" transform="rotate(0.712909 8.03735 34)" fill="white"/>
<ellipse cx="9.5" cy="91" rx="9.5" ry="8" fill="white"/>
<rect x="8" y="34.4741" width="4" height="57" transform="rotate(-6.80637 8 34.4741)" fill="white"/>
<path d="M39.7027 41.0954C37.6517 41.0954 35.5659 41.3541 33.5579 41.3541C31.5445 41.3541 29.3687 41.4835 27.2837 41.4835C25.9722 41.4835 24.7328 41.7422 23.4027 41.7422C21.9989 41.7422 20.595 41.7422 19.1912 41.7422C16.6901 41.7422 14.2559 41.8716 11.7599 41.8716" stroke="white" stroke-width="3" stroke-linecap="round"/>
<path d="M34.2063 38.702C32.4179 38.702 30.3319 38.6057 28.5986 39.1009C28.0981 39.2439 29.6396 39.1123 30.1601 39.1123C32.0487 39.1123 33.9175 39.0832 35.802 38.9527C36.3404 38.9154 36.8888 38.9068 37.4205 38.8046C37.5487 38.7799 37.808 38.617 37.808 38.7476C37.808 38.9331 36.4192 39.192 36.3149 39.2149C35.1368 39.4735 33.9358 39.4994 32.7474 39.6822C31.9351 39.8072 33.8724 39.3545 34.024 39.3061C34.9373 39.0138 35.8586 38.6279 36.8164 38.5082C36.969 38.4891 35.5195 38.6308 35.2321 38.6564C34.0398 38.7624 32.8262 38.702 31.6304 38.702C30.2817 38.702 32.5511 38.4624 32.907 38.3942C34.5203 38.0853 39.45 37.8357 37.808 37.8813C35.7243 37.9392 29.5008 38.5421 31.5848 38.4968C34.9988 38.4226 38.3753 37.8813 41.8086 37.8813C42.5244 37.8813 40.3746 37.9182 39.6659 38.0181C36.633 38.4458 33.6293 38.9243 30.5818 39.2719C29.3045 39.4175 25.4841 39.5164 26.7522 39.7278C28.1875 39.967 29.9301 39.574 31.3683 39.5226C33.8479 39.4341 36.338 39.3661 38.811 39.1579C40.1403 39.0459 37.1273 39.6498 36.8278 39.7164C32.4266 40.6944 27.9049 41.1639 23.4012 41.1639C20.6877 41.1639 28.8258 40.9876 31.5392 40.9587C35.1179 40.9207 24.3814 40.9587 20.8025 40.9587C19.0093 40.9587 13.6295 40.9587 15.4227 40.9587C17.664 40.9587 19.8978 40.6608 22.136 40.5598C23.949 40.478 25.733 40.3 27.5386 40.1495C28.6252 40.0589 25.3578 40.1381 24.2674 40.1381C22.337 40.1381 20.3995 40.087 18.4774 40.2977C17.5681 40.3973 19.3374 40.0595 19.4918 40.0241C20.5344 39.7852 21.5743 39.4618 22.6376 39.3288C23.5235 39.2181 20.8519 39.3117 19.9591 39.3175C18.6019 39.3262 15.8249 38.9638 14.6705 39.8873C13.7576 40.6177 12.9079 39.909 12.8696 38.9527C12.861 38.7369 12.9851 37.7336 12.8582 38.1777C12.6597 38.8724 14.7653 38.462 15.3886 38.3942C20.5646 37.8316 25.9874 38.2916 31.1973 38.2916C31.6813 38.2916 30.2262 38.3201 29.7498 38.4056C28.2569 38.6736 26.7379 38.9462 25.2249 39.0667C24.5005 39.1244 23.7737 39.1123 23.0479 39.1123C22.5731 39.1123 23.9924 38.9886 24.4498 38.8615C27.5587 37.998 30.9663 37.9547 34.1721 37.6876C35.7263 37.5581 37.2619 37.471 38.8224 37.471C39.337 37.471 38.5147 39.1475 38.5147 39.7278" stroke="white" stroke-width="3" stroke-linecap="round"/>
<path d="M40.3937 41.4544C36.9355 41.4544 33.4773 41.4544 30.0192 41.4544C26.5408 41.4544 23.1112 41.9837 19.6212 41.9837C17.2295 41.9837 10.0544 41.9837 12.4461 41.9837" stroke="white" stroke-width="3" stroke-linecap="round"/>
<path d="M40.0761 41.4544C38.1882 41.4544 36.3004 41.4544 34.4125 41.4544C33.5419 41.4544 32.6635 41.5354 31.8189 41.5603C31.2789 41.5761 30.7358 41.5603 30.1956 41.5603C29.6173 41.5603 31.3523 41.5603 31.9306 41.5603C34.2098 41.5603 36.4389 41.4544 38.6999 41.4544C38.8514 41.4544 39.5853 41.505 39.5821 41.5073C39.2922 41.7144 38.3699 41.772 38.0118 41.772C36.9355 41.772 35.8593 41.772 34.783 41.772C31.3017 41.772 27.8868 41.8779 24.4085 41.8779C22.6638 41.8779 20.919 41.8779 19.1742 41.8779C18.0716 41.8779 16.9732 41.9837 15.8925 41.9837C15.3367 41.9837 14.8223 42.1954 14.2693 42.1954C13.8834 42.1954 13.5184 42.2967 13.1283 42.3013C12.6741 42.3066 12.0539 42.1642 11.7051 42.513" stroke="white" stroke-width="3" stroke-linecap="round"/>
</svg>
