<svg width="73" height="126" viewBox="0 0 73 126" fill="none" xmlns="http://www.w3.org/2000/svg">
<g filter="url(#filter0_d_301_43)">
<path d="M45.5488 78.5195C45.4512 77.5104 45.207 76.0293 44.8164 74.0762C44.263 71.5046 43.9863 69.4375 43.9863 67.875C43.9863 66.8333 44.5234 65.8568 45.5977 64.9453C46.6719 64.0339 48.3646 62.862 50.6758 61.4297C52.987 59.9974 54.8913 58.7116 56.3887 57.5723C57.9186 56.4329 59.2207 55.0495 60.2949 53.4219C61.4017 51.7943 61.9551 49.9714 61.9551 47.9531C61.9551 45.9674 61.4017 44.0957 60.2949 42.3379C59.1882 40.5801 57.7233 39.1803 55.9004 38.1387C54.0775 37.0645 52.1732 36.5273 50.1875 36.5273C49.2109 36.5273 48.3646 36.7715 47.6484 37.2598C46.9323 37.748 46.0697 38.4967 45.0605 39.5059C44.1491 40.4824 43.319 41.2311 42.5703 41.752C41.8542 42.2402 41.0078 42.4844 40.0312 42.4844C38.9896 42.4844 38.1107 42.0775 37.3945 41.2637C36.6784 40.4173 36.3203 39.4733 36.3203 38.4316C36.3203 36.6738 36.9714 35.2578 38.2734 34.1836C39.5755 33.0768 41.1706 32.2956 43.0586 31.8398C44.9792 31.3516 46.8997 31.1074 48.8203 31.1074C51.9453 31.1074 55.0378 31.9375 58.0977 33.5977C61.1901 35.2253 63.7129 37.39 65.666 40.0918C67.6517 42.7936 68.6445 45.6419 68.6445 48.6367C68.6445 51.5664 68.14 54.0566 67.1309 56.1074C66.1217 58.1582 64.901 59.8346 63.4688 61.1367C62.0365 62.4062 60.1647 63.8223 57.8535 65.3848C55.9329 66.6868 54.4193 67.7936 53.3125 68.7051C52.2383 69.6165 51.3268 70.7233 50.5781 72.0254C49.862 73.3275 49.5039 74.8574 49.5039 76.6152V78.5195H45.5488ZM53.9961 90.5801C53.9961 91.6543 53.7031 92.6634 53.1172 93.6074C52.5638 94.5189 51.8151 95.2513 50.8711 95.8047C49.9271 96.3581 48.918 96.6348 47.8438 96.6348C46.7695 96.6348 45.7767 96.3581 44.8652 95.8047C43.9538 95.2513 43.2214 94.5189 42.668 93.6074C42.1146 92.6634 41.8379 91.6543 41.8379 90.5801C41.8379 89.5059 42.0983 88.4967 42.6191 87.5527C43.1725 86.6087 43.9049 85.86 44.8164 85.3066C45.7604 84.7533 46.7695 84.4766 47.8438 84.4766C48.918 84.4766 49.9271 84.7533 50.8711 85.3066C51.8151 85.86 52.5638 86.6087 53.1172 87.5527C53.7031 88.4967 53.9961 89.5059 53.9961 90.5801Z" fill="#141414"/>
<path d="M45.5488 78.5195L44.5535 78.6159L44.6409 79.5195H45.5488V78.5195ZM44.8164 74.0762L45.797 73.8801L45.7956 73.8729L45.794 73.8658L44.8164 74.0762ZM56.3887 57.5723L55.7914 56.7702L55.7832 56.7764L56.3887 57.5723ZM60.2949 53.4219L59.4679 52.8595L59.4603 52.871L60.2949 53.4219ZM55.9004 38.1387L55.3927 39.0003L55.4043 39.0069L55.9004 38.1387ZM45.0605 39.5059L44.3534 38.7988L44.3413 38.8109L44.3295 38.8235L45.0605 39.5059ZM42.5703 41.752L43.1337 42.5782L43.1414 42.5729L42.5703 41.752ZM37.3945 41.2637L36.6311 41.9096L36.6374 41.917L36.6438 41.9243L37.3945 41.2637ZM38.2734 34.1836L38.9098 34.955L38.9155 34.9503L38.9211 34.9455L38.2734 34.1836ZM43.0586 31.8398L43.2933 32.812L43.305 32.809L43.0586 31.8398ZM58.0977 33.5977L57.6207 34.4767L57.6319 34.4826L58.0977 33.5977ZM65.666 40.0918L64.8556 40.6777L64.8602 40.684L65.666 40.0918ZM63.4688 61.1367L64.1321 61.8851L64.1414 61.8767L63.4688 61.1367ZM57.8535 65.3848L57.2934 64.5563L57.2924 64.5571L57.8535 65.3848ZM53.3125 68.7051L52.6768 67.9331L52.6711 67.9378L52.6655 67.9426L53.3125 68.7051ZM50.5781 72.0254L49.7112 71.5269L49.7065 71.5352L49.7019 71.5435L50.5781 72.0254ZM49.5039 78.5195V79.5195H50.5039V78.5195H49.5039ZM53.1172 93.6074L52.2675 93.08L52.2624 93.0884L53.1172 93.6074ZM44.8652 95.8047L44.3463 96.6595L44.8652 95.8047ZM42.668 93.6074L41.8053 94.1131L41.8092 94.1198L41.8132 94.1264L42.668 93.6074ZM42.6191 87.5527L41.7564 87.047L41.7499 87.0583L41.7436 87.0697L42.6191 87.5527ZM44.8164 85.3066L44.3107 84.4439L44.304 84.4478L44.2974 84.4519L44.8164 85.3066ZM53.1172 87.5527L52.2545 88.0585L52.2609 88.0694L52.2675 88.0801L53.1172 87.5527ZM46.5442 78.4232C46.4415 77.3623 46.1892 75.8412 45.797 73.8801L43.8358 74.2723C44.2249 76.2174 44.4608 77.6585 44.5535 78.6159L46.5442 78.4232ZM45.794 73.8658C45.2469 71.3233 44.9863 69.3351 44.9863 67.875H42.9863C42.9863 69.5399 43.2791 71.6858 43.8388 74.2865L45.794 73.8658ZM44.9863 67.875C44.9863 67.2211 45.311 66.5 46.2446 65.7078L44.9507 64.1828C43.7359 65.2136 42.9863 66.4456 42.9863 67.875H44.9863ZM46.2446 65.7078C47.2607 64.8457 48.9024 63.7052 51.2025 62.2797L50.149 60.5797C47.8268 62.0188 46.083 63.222 44.9507 64.1828L46.2446 65.7078ZM51.2025 62.2797C53.5301 60.8373 55.463 59.5331 56.9942 58.3681L55.7832 56.7764C54.3195 57.8901 52.4439 59.1575 50.149 60.5797L51.2025 62.2797ZM56.9859 58.3743C58.6111 57.1641 59.9928 55.695 61.1295 53.9727L59.4603 52.871C58.4486 54.404 57.2262 55.7018 55.7914 56.7702L56.9859 58.3743ZM61.1218 53.9842C62.3444 52.1863 62.9551 50.1665 62.9551 47.9531H60.9551C60.9551 49.7762 60.459 51.4022 59.468 52.8596L61.1218 53.9842ZM62.9551 47.9531C62.9551 45.77 62.3435 43.7147 61.1412 41.8051L59.4487 42.8707C60.4599 44.4767 60.9551 46.1649 60.9551 47.9531H62.9551ZM61.1412 41.8051C59.946 39.9069 58.3603 38.3926 56.3965 37.2704L55.4043 39.0069C57.0863 39.9681 58.4303 41.2533 59.4487 42.8707L61.1412 41.8051ZM56.4081 37.2771C54.4418 36.1184 52.3635 35.5273 50.1875 35.5273V37.5273C51.9828 37.5273 53.7131 38.0105 55.3927 39.0002L56.4081 37.2771ZM50.1875 35.5273C49.0364 35.5273 47.9878 35.818 47.0851 36.4335L48.2118 38.086C48.7413 37.7249 49.3855 37.5273 50.1875 37.5273V35.5273ZM47.0851 36.4335C46.2952 36.9721 45.3823 37.7699 44.3534 38.7988L45.7677 40.213C46.757 39.2236 47.5694 38.524 48.2118 38.086L47.0851 36.4335ZM44.3295 38.8235C43.4462 39.7699 42.6699 40.4645 41.9992 40.931L43.1414 42.5729C43.9682 41.9977 44.852 41.1949 45.7916 40.1882L44.3295 38.8235ZM42.007 40.9257C41.4774 41.2868 40.8332 41.4844 40.0312 41.4844V43.4844C41.1824 43.4844 42.2309 43.1937 43.1336 42.5782L42.007 40.9257ZM40.0312 41.4844C39.29 41.4844 38.6803 41.2111 38.1452 40.603L36.6438 41.9243C37.541 42.9438 38.6892 43.4844 40.0312 43.4844V41.4844ZM38.1579 40.6177C37.5839 39.9394 37.3203 39.2208 37.3203 38.4316H35.3203C35.3203 39.7258 35.7729 40.8953 36.6311 41.9096L38.1579 40.6177ZM37.3203 38.4316C37.3203 36.9581 37.8487 35.8304 38.9098 34.955L37.6371 33.4122C36.094 34.6853 35.3203 36.3895 35.3203 38.4316H37.3203ZM38.9211 34.9455C40.0885 33.9533 41.5365 33.236 43.2932 32.8119L42.824 30.8678C40.8046 31.3552 39.0626 32.2004 37.6258 33.4217L38.9211 34.9455ZM43.305 32.809C45.1476 32.3406 46.9854 32.1074 48.8203 32.1074V30.1074C46.814 30.1074 44.8107 30.3626 42.8122 30.8707L43.305 32.809ZM48.8203 32.1074C51.7604 32.1074 54.6903 32.8867 57.6208 34.4766L58.5745 32.7187C55.3852 30.9883 52.1302 30.1074 48.8203 30.1074V32.1074ZM57.6319 34.4826C60.5947 36.0419 62.9971 38.1068 64.8556 40.6776L66.4764 39.5059C64.4286 36.6732 61.7855 34.4086 58.5634 32.7127L57.6319 34.4826ZM64.8602 40.684C66.7355 43.2357 67.6445 45.8802 67.6445 48.6367H69.6445C69.6445 45.4036 68.5678 42.3516 66.4718 39.4996L64.8602 40.684ZM67.6445 48.6367C67.6445 51.4551 67.1588 53.7856 66.2336 55.6659L68.0281 56.5489C69.1211 54.3277 69.6445 51.6777 69.6445 48.6367H67.6445ZM66.2336 55.6659C65.2701 57.624 64.1203 59.193 62.7961 60.3968L64.1414 61.8767C65.6818 60.4763 66.9734 58.6924 68.0281 56.5489L66.2336 55.6659ZM62.8054 60.3884C61.4168 61.6192 59.5833 63.0083 57.2934 64.5563L58.4136 66.2132C60.7462 64.6363 62.6561 63.1933 64.1321 61.8851L62.8054 60.3884ZM57.2924 64.5571C55.3597 65.8673 53.8175 66.9937 52.6768 67.9331L53.9482 69.477C55.021 68.5935 56.5062 67.5063 58.4147 66.2125L57.2924 64.5571ZM52.6655 67.9426C51.4976 68.9335 50.5136 70.1314 49.7112 71.5269L51.445 72.5239C52.14 71.3152 52.9789 70.2996 53.9595 69.4676L52.6655 67.9426ZM49.7019 71.5435C48.8909 73.0181 48.5039 74.7198 48.5039 76.6152H50.5039C50.5039 74.9951 50.8331 73.6369 51.4543 72.5073L49.7019 71.5435ZM48.5039 76.6152V78.5195H50.5039V76.6152H48.5039ZM49.5039 77.5195H45.5488V79.5195H49.5039V77.5195ZM52.9961 90.5801C52.9961 91.4613 52.7587 92.2887 52.2675 93.0801L53.9668 94.1348C54.6475 93.0381 54.9961 91.8473 54.9961 90.5801H52.9961ZM52.2624 93.0884C51.7974 93.8543 51.1702 94.4702 50.3654 94.942L51.3768 96.6674C52.46 96.0324 53.3302 95.1834 53.972 94.1264L52.2624 93.0884ZM50.3654 94.942C49.5717 95.4072 48.7367 95.6348 47.8438 95.6348V97.6348C49.0992 97.6348 50.2824 97.3089 51.3768 96.6674L50.3654 94.942ZM47.8438 95.6348C46.9511 95.6348 46.138 95.4076 45.3842 94.9499L44.3463 96.6595C45.4154 97.3086 46.5879 97.6348 47.8438 97.6348V95.6348ZM45.3842 94.9499C44.61 94.4799 43.9928 93.8626 43.5228 93.0884L41.8132 94.1264C42.4499 95.1751 43.2975 96.0227 44.3463 96.6595L45.3842 94.9499ZM43.5307 93.1017C43.0654 92.3081 42.8379 91.4731 42.8379 90.5801H40.8379C40.8379 91.8355 41.1637 93.0188 41.8053 94.1131L43.5307 93.1017ZM42.8379 90.5801C42.8379 89.6755 43.0552 88.8325 43.4947 88.0358L41.7436 87.0697C41.1414 88.161 40.8379 89.3363 40.8379 90.5801H42.8379ZM43.4818 88.0585C43.9537 87.2536 44.5695 86.6264 45.3354 86.1614L44.2974 84.4519C43.2404 85.0936 42.3914 85.9639 41.7564 87.047L43.4818 88.0585ZM45.3221 86.1693C46.1158 85.7041 46.9508 85.4766 47.8438 85.4766V83.4766C46.5883 83.4766 45.4051 83.8024 44.3107 84.4439L45.3221 86.1693ZM47.8438 85.4766C48.7367 85.4766 49.5717 85.7041 50.3654 86.1693L51.3768 84.4439C50.2824 83.8024 49.0992 83.4766 47.8438 83.4766V85.4766ZM50.3654 86.1693C51.1618 86.6362 51.7876 87.262 52.2545 88.0585L53.9799 87.047C53.34 85.9554 52.4684 85.0838 51.3768 84.4439L50.3654 86.1693ZM52.2675 88.0801C52.7587 88.8715 52.9961 89.6988 52.9961 90.5801H54.9961C54.9961 89.3129 54.6475 88.122 53.9668 87.0254L52.2675 88.0801Z" fill="black"/>
</g>
<rect x="8.03735" y="34" width="42.7388" height="3" transform="rotate(0.712909 8.03735 34)" fill="#141414"/>
<ellipse cx="9.5" cy="91" rx="9.5" ry="8" fill="#141414"/>
<rect x="8" y="34.4741" width="4" height="57" transform="rotate(-6.80637 8 34.4741)" fill="#141414"/>
<path d="M39.7027 41.0954C37.6517 41.0954 35.5659 41.3541 33.5579 41.3541C31.5445 41.3541 29.3687 41.4835 27.2837 41.4835C25.9722 41.4835 24.7328 41.7422 23.4027 41.7422C21.9989 41.7422 20.595 41.7422 19.1912 41.7422C16.6901 41.7422 14.2559 41.8716 11.7599 41.8716" stroke="#141414" stroke-width="3" stroke-linecap="round"/>
<path d="M34.2063 38.702C32.4179 38.702 30.3319 38.6057 28.5986 39.1009C28.0981 39.2439 29.6396 39.1123 30.1601 39.1123C32.0487 39.1123 33.9175 39.0832 35.802 38.9527C36.3404 38.9154 36.8888 38.9068 37.4205 38.8046C37.5487 38.7799 37.808 38.617 37.808 38.7476C37.808 38.9331 36.4192 39.192 36.3149 39.2149C35.1368 39.4735 33.9358 39.4994 32.7474 39.6822C31.9351 39.8072 33.8724 39.3545 34.024 39.3061C34.9373 39.0138 35.8586 38.6279 36.8164 38.5082C36.969 38.4891 35.5195 38.6308 35.2321 38.6564C34.0398 38.7624 32.8262 38.702 31.6304 38.702C30.2817 38.702 32.5511 38.4624 32.907 38.3942C34.5203 38.0853 39.45 37.8357 37.808 37.8813C35.7243 37.9392 29.5008 38.5421 31.5848 38.4968C34.9988 38.4226 38.3753 37.8813 41.8086 37.8813C42.5244 37.8813 40.3746 37.9182 39.6659 38.0181C36.633 38.4458 33.6293 38.9243 30.5818 39.2719C29.3045 39.4175 25.4841 39.5164 26.7522 39.7278C28.1875 39.967 29.9301 39.574 31.3683 39.5226C33.8479 39.4341 36.338 39.3661 38.811 39.1579C40.1403 39.0459 37.1273 39.6498 36.8278 39.7164C32.4266 40.6944 27.9049 41.1639 23.4012 41.1639C20.6877 41.1639 28.8258 40.9876 31.5392 40.9587C35.1179 40.9207 24.3814 40.9587 20.8025 40.9587C19.0093 40.9587 13.6295 40.9587 15.4227 40.9587C17.664 40.9587 19.8978 40.6608 22.136 40.5598C23.949 40.478 25.733 40.3 27.5386 40.1495C28.6252 40.0589 25.3578 40.1381 24.2674 40.1381C22.337 40.1381 20.3995 40.087 18.4774 40.2977C17.5681 40.3973 19.3374 40.0595 19.4918 40.0241C20.5344 39.7852 21.5743 39.4618 22.6376 39.3288C23.5235 39.2181 20.8519 39.3117 19.9591 39.3175C18.6019 39.3262 15.8249 38.9638 14.6705 39.8873C13.7576 40.6177 12.9079 39.909 12.8696 38.9527C12.861 38.7369 12.9851 37.7336 12.8582 38.1777C12.6597 38.8724 14.7653 38.462 15.3886 38.3942C20.5646 37.8316 25.9874 38.2916 31.1973 38.2916C31.6813 38.2916 30.2262 38.3201 29.7498 38.4056C28.2569 38.6736 26.7379 38.9462 25.2249 39.0667C24.5005 39.1244 23.7737 39.1123 23.0479 39.1123C22.5731 39.1123 23.9924 38.9886 24.4498 38.8615C27.5587 37.998 30.9663 37.9547 34.1721 37.6876C35.7263 37.5581 37.2619 37.471 38.8224 37.471C39.337 37.471 38.5147 39.1475 38.5147 39.7278" stroke="#141414" stroke-width="3" stroke-linecap="round"/>
<path d="M40.3937 41.4544C36.9355 41.4544 33.4773 41.4544 30.0192 41.4544C26.5408 41.4544 23.1112 41.9837 19.6212 41.9837C17.2295 41.9837 10.0544 41.9837 12.4461 41.9837" stroke="#141414" stroke-width="3" stroke-linecap="round"/>
<path d="M40.0761 41.4544C38.1882 41.4544 36.3004 41.4544 34.4125 41.4544C33.5419 41.4544 32.6635 41.5354 31.8189 41.5603C31.2789 41.5761 30.7358 41.5603 30.1956 41.5603C29.6173 41.5603 31.3523 41.5603 31.9306 41.5603C34.2098 41.5603 36.4389 41.4544 38.6999 41.4544C38.8514 41.4544 39.5853 41.505 39.5821 41.5073C39.2922 41.7144 38.3699 41.772 38.0118 41.772C36.9355 41.772 35.8593 41.772 34.783 41.772C31.3017 41.772 27.8868 41.8779 24.4085 41.8779C22.6638 41.8779 20.919 41.8779 19.1742 41.8779C18.0716 41.8779 16.9732 41.9837 15.8925 41.9837C15.3367 41.9837 14.8223 42.1954 14.2693 42.1954C13.8834 42.1954 13.5184 42.2967 13.1283 42.3013C12.6741 42.3066 12.0539 42.1642 11.7051 42.513" stroke="#141414" stroke-width="3" stroke-linecap="round"/>
<defs>
<filter id="filter0_d_301_43" x="32.3203" y="31.1074" width="40.3242" height="73.5273" filterUnits="userSpaceOnUse" color-interpolation-filters="sRGB">
<feFlood flood-opacity="0" result="BackgroundImageFix"/>
<feColorMatrix in="SourceAlpha" type="matrix" values="0 0 0 0 0 0 0 0 0 0 0 0 0 0 0 0 0 0 127 0" result="hardAlpha"/>
<feOffset dy="4"/>
<feGaussianBlur stdDeviation="2"/>
<feComposite in2="hardAlpha" operator="out"/>
<feColorMatrix type="matrix" values="0 0 0 0 0 0 0 0 0 0 0 0 0 0 0 0 0 0 0.25 0"/>
<feBlend mode="normal" in2="BackgroundImageFix" result="effect1_dropShadow_301_43"/>
<feBlend mode="normal" in="SourceGraphic" in2="effect1_dropShadow_301_43" result="shape"/>
</filter>
</defs>
</svg>
